<?xml version="1.0" encoding="UTF-8" standalone="no"?>
<svg width="41px" height="40px" viewBox="0 0 41 40" version="1.1" xmlns="http://www.w3.org/2000/svg" xmlns:xlink="http://www.w3.org/1999/xlink" xmlns:sketch="http://www.bohemiancoding.com/sketch/ns">
    <!-- Generator: Sketch 3.4.2 (15857) - http://www.bohemiancoding.com/sketch -->
    <title>Github</title>
    <desc>Created with Sketch.</desc>
    <defs></defs>
    <g id="Site-View" stroke="none" stroke-width="1" fill="none" fill-rule="evenodd" sketch:type="MSPage">
        <g id="Desktop" sketch:type="MSArtboardGroup" transform="translate(-909.000000, -2666.000000)" fill="#788492">
            <g id="Footer-Copy" sketch:type="MSLayerGroup" transform="translate(-1.000000, 2623.000000)">
                <g id="svg-social-media-icons" transform="translate(811.000000, 43.000000)" sketch:type="MSShapeGroup">
                    <g id="Social-Media">
                        <path d="M119.282914,0 C108.240327,0 99.2857143,9.1808735 99.2857143,20.5073268 C99.2857143,29.5666014 105.014926,37.253089 112.96347,39.9652235 C113.963458,40.1540217 114.328254,39.5204277 114.328254,38.9764328 C114.328254,38.4900374 114.310654,37.2004495 114.301054,35.4884657 C108.738081,36.728454 107.563855,32.7396916 107.563855,32.7396916 C106.655066,30.3701139 105.343242,29.7397198 105.343242,29.7397198 C103.527423,28.4677318 105.48084,28.4933316 105.48084,28.4933316 C107.487056,28.6389302 108.544803,30.6069116 108.544803,30.6069116 C110.328782,33.7412821 113.226187,32.8356906 114.365213,32.3108956 C114.547771,30.9861081 115.062645,30.0821166 115.635598,29.5701214 C111.194211,29.0533263 106.525787,27.2933429 106.525787,19.4356569 C106.525787,17.197278 107.304978,15.3668952 108.584963,13.9331487 C108.378565,13.4147536 107.693773,11.3299733 108.7816,8.50583986 C108.7816,8.50583986 110.46158,7.95368507 114.280414,10.6082201 C115.875435,10.1538243 117.585975,9.92646648 119.286594,9.91862655 C120.984014,9.92662648 122.695993,10.1538243 124.292774,10.6082201 C128.110168,7.95528505 129.786788,8.50583986 129.786788,8.50583986 C130.877815,11.3298133 130.191583,13.4147536 129.985186,13.9331487 C131.266771,15.3668952 132.041161,17.197118 132.041161,19.4356569 C132.041161,27.3141427 127.364577,29.0469263 122.910391,29.5541216 C123.628782,30.1877156 124.268774,31.4389038 124.268774,33.3510458 C124.268774,36.09182 124.244775,38.3045991 124.244775,38.9767528 C124.244775,39.5255476 124.60477,40.1625016 125.620758,39.9623435 C133.561143,37.2455691 139.285714,29.5638815 139.285714,20.5076468 C139.283634,9.1808735 130.328862,0 119.282914,0 L119.282914,0 Z" id="Github"></path>
                    </g>
                </g>
            </g>
        </g>
    </g>
</svg>