<?xml version="1.0" encoding="UTF-8" standalone="no"?>
<svg width="40px" height="40px" viewBox="0 0 40 40" version="1.1" xmlns="http://www.w3.org/2000/svg" xmlns:xlink="http://www.w3.org/1999/xlink" xmlns:sketch="http://www.bohemiancoding.com/sketch/ns">
    <!-- Generator: Sketch 3.4.2 (15857) - http://www.bohemiancoding.com/sketch -->
    <title>Twitter</title>
    <desc>Created with Sketch.</desc>
    <defs></defs>
    <g id="Site-View" stroke="none" stroke-width="1" fill="none" fill-rule="evenodd" sketch:type="MSPage">
        <g id="Desktop" sketch:type="MSArtboardGroup" transform="translate(-810.000000, -2666.000000)" fill="#788492">
            <g id="Footer-Copy" sketch:type="MSLayerGroup" transform="translate(-1.000000, 2623.000000)">
                <g id="svg-social-media-icons" transform="translate(811.000000, 43.000000)" sketch:type="MSShapeGroup">
                    <g id="Social-Media">
                        <path d="M20.0016,0.000163346614 C8.95504,0.000163346614 0,8.95363916 0,20.0000833 C0,31.0434875 8.95504,40.0001633 20.0016,40.0001633 C30.0736,40.0001633 38.4032,32.5538936 39.7936,22.8688948 C39.9264,22.2112922 39.9888,21.5280895 39.9776,20.8272867 C39.9904,20.5536856 40,20.2784845 40,20.0016834 C39.99984,8.95363916 31.048,0.000163346614 20.0016,0.000163346614 L20.0016,0.000163346614 Z M29.208,16.3698288 C29.216,16.5586296 29.2176,16.7426303 29.2176,16.9298311 C29.2176,22.6386539 24.8736,29.2226802 16.9264,29.2226802 C14.48336,29.2226802 12.216,28.5122774 10.3024,27.2818725 C10.64,27.3202726 10.984,27.3410727 11.3312,27.3410727 C13.3552,27.3410727 15.2176,26.65467 16.6992,25.4946653 C14.808,25.4594652 13.2112,24.2082602 12.6576,22.4946533 C12.9232,22.5442535 13.1952,22.5730536 13.4752,22.5730536 C13.864,22.5730536 14.248,22.5186534 14.6096,22.421053 C12.6336,22.0242514 11.1424,20.2786445 11.1424,18.1858361 L11.1424,18.1314359 C11.728,18.4530372 12.3936,18.6498379 13.1024,18.672238 C11.9376,17.8946349 11.1776,16.5730296 11.1776,15.0738236 C11.1776,14.2802205 11.392,13.5426175 11.7632,12.8994149 C13.896,15.5170254 17.0784,17.2338323 20.672,17.414633 C20.5968,17.0995917 20.5584,16.7650304 20.5584,16.4274291 C20.5584,14.0402195 22.4976,12.1059718 24.88144,12.1059718 C26.12304,12.1059718 27.24464,12.6323739 28.03344,13.4723772 C29.02224,13.2771765 29.94384,12.920375 30.78064,12.422773 C30.45904,13.4307771 29.77424,14.2771805 28.87824,14.8131826 C29.75664,14.7123822 30.58864,14.4771813 31.35984,14.1331799 C30.78224,15.0018234 30.0512,15.7602264 29.208,16.3698288 L29.208,16.3698288 Z" id="Twitter"></path>
                    </g>
                </g>
            </g>
        </g>
    </g>
</svg>