<?xml version="1.0" encoding="UTF-8" standalone="no"?>
<svg width="41px" height="40px" viewBox="0 0 41 40" version="1.1" xmlns="http://www.w3.org/2000/svg" xmlns:xlink="http://www.w3.org/1999/xlink" xmlns:sketch="http://www.bohemiancoding.com/sketch/ns">
    <!-- Generator: Sketch 3.4.2 (15857) - http://www.bohemiancoding.com/sketch -->
    <title>Instagram</title>
    <desc>Created with Sketch.</desc>
    <defs></defs>
    <g id="Site-View" stroke="none" stroke-width="1" fill="none" fill-rule="evenodd" sketch:type="MSPage">
        <g id="Desktop" sketch:type="MSArtboardGroup" transform="translate(-859.000000, -2666.000000)" fill="#788492">
            <g id="Footer-Copy" sketch:type="MSLayerGroup" transform="translate(-1.000000, 2623.000000)">
                <g id="svg-social-media-icons" transform="translate(811.000000, 43.000000)" sketch:type="MSShapeGroup">
                    <g id="Social-Media">
                        <g id="Instagram" transform="translate(49.428571, 0.000000)">
                            <path d="M26.7792,20.1888 C26.7792,23.8048 23.7536,26.736 20.0208,26.736 C16.288,26.736 13.2624,23.8048 13.2624,20.1888 C13.2624,19.5408 13.36,18.9152 13.5408,18.3232 L11.544,18.3232 L11.544,27.5072 C11.544,27.9824 11.9328,28.3712 12.408,28.3712 L27.5472,28.3712 C28.0224,28.3712 28.4112,27.9824 28.4112,27.5072 L28.4112,18.3232 L26.4976,18.3232 C26.6816,18.9152 26.7792,19.5408 26.7792,20.1888 L26.7792,20.1888 Z" id="Shape"></path>
                            <ellipse id="Oval" cx="20.0208" cy="19.95376" rx="4.3664" ry="4.2304"></ellipse>
                            <path d="M24.96656,15.8448 L27.42416,15.8448 C27.96176,15.8448 28.40336,15.4048 28.40336,14.8656 L28.40336,12.5232 C28.40336,11.984 27.96336,11.544 27.42416,11.544 L24.96656,11.544 C24.42896,11.544 23.98736,11.984 23.98736,12.5232 L23.98736,14.8656 C23.9888,15.4048 24.4288,15.8448 24.96656,15.8448 L24.96656,15.8448 Z" id="Shape"></path>
                            <path d="M20.0032,0 C8.952,0 0,8.952 0,20 C0,31.048 8.952,40 20.0032,40 C31.0512,40 40,31.0464 40,20 C40.00016,8.9488 31.0512,0 20.0032,0 L20.0032,0 Z M30.8704,28.08016 C30.8704,29.61456 29.6144,30.87056 28.08,30.87056 L11.92,30.87056 C10.3856,30.87056 9.1296,29.61456 9.1296,28.08016 L9.1296,11.92016 C9.1296,10.38576 10.3856,9.12976 11.92,9.12976 L28.08,9.12976 C29.6144,9.12976 30.8704,10.38576 30.8704,11.92016 L30.8704,28.08016 L30.8704,28.08016 Z" id="Shape"></path>
                        </g>
                    </g>
                </g>
            </g>
        </g>
    </g>
</svg>