<?xml version="1.0" encoding="UTF-8" standalone="no"?>
<svg width="41px" height="40px" viewBox="0 0 41 40" version="1.1" xmlns="http://www.w3.org/2000/svg" xmlns:xlink="http://www.w3.org/1999/xlink" xmlns:sketch="http://www.bohemiancoding.com/sketch/ns">
    <!-- Generator: Sketch 3.4.2 (15857) - http://www.bohemiancoding.com/sketch -->
    <title>Dribbble</title>
    <desc>Created with Sketch.</desc>
    <defs></defs>
    <g id="Site-View" stroke="none" stroke-width="1" fill="none" fill-rule="evenodd" sketch:type="MSPage">
        <g id="Desktop" sketch:type="MSArtboardGroup" transform="translate(-959.000000, -2666.000000)" fill="#788492">
            <g id="Footer-Copy" sketch:type="MSLayerGroup" transform="translate(-1.000000, 2623.000000)">
                <g id="svg-social-media-icons" transform="translate(811.000000, 43.000000)" sketch:type="MSShapeGroup">
                    <g id="Social-Media">
                        <g id="Dribbble" transform="translate(149.142857, 0.000000)">
                            <path d="M20.71664,20.10576 C20.84944,20.06256 20.98544,20.02256 21.11984,19.98416 C20.86224,19.40176 20.58224,18.81936 20.2896,18.24496 C15.17168,19.77616 10.204,19.71216 9.756,19.70416 C9.7528,19.80816 9.7512,19.91216 9.7512,20.0176 C9.7512,22.6496 10.7496,25.0544 12.38624,26.8704 C12.61824,26.47216 15.43072,21.81456 20.71664,20.10576 L20.71664,20.10576 Z" id="Shape"></path>
                            <path d="M19.4432,16.6672 C17.7456,13.648 15.91392,11.1104 15.64336,10.7392 C12.77648,12.0912 10.63248,14.736 9.96848,17.9152 C10.42624,17.9216 14.64848,17.9408 19.4432,16.6672 L19.4432,16.6672 Z" id="Shape"></path>
                            <path d="M26.79456,12.34896 C24.98496,10.74256 22.60448,9.76656 19.99984,9.76656 C19.1728,9.76656 18.3696,9.86576 17.5984,10.05136 C17.8816,10.43056 19.74384,12.96656 21.42208,16.05136 C25.06672,14.6848 26.60912,12.61136 26.79456,12.34896 L26.79456,12.34896 Z" id="Shape"></path>
                            <path d="M21.74864,21.70096 C15.96832,23.71536 13.89328,27.72496 13.70768,28.10256 C15.44512,29.45776 17.62896,30.26576 19.9984,30.26576 C21.4176,30.26576 22.77104,29.97456 24.00128,29.45136 C23.84928,28.55216 23.25408,25.41776 21.8144,21.67856 C21.79488,21.6864 21.77248,21.69296 21.74864,21.70096 L21.74864,21.70096 Z" id="Shape"></path>
                            <path d="M20.0016,0 C8.9544,0 0,8.9552 0,19.9984 C0,31.0432 8.9544,40 20.0016,40 C31.0488,40 40,31.0448 40,19.9984 C40.0016,8.95536 31.04864,0 20.0016,0 L20.0016,0 Z M20,32.00016 C13.38448,32.00016 8.00096,26.61616 8.00096,20.00016 C8.00096,13.38416 13.38448,8.00016 20,8.00016 C26.61552,8.00016 31.99904,13.38416 31.99904,20.00016 C31.99904,26.61616 26.61552,32.00016 20,32.00016 L20,32.00016 Z" id="Shape"></path>
                            <path d="M23.73568,21.20496 C25.07632,24.88832 25.62192,27.88992 25.72752,28.51376 C28.02656,26.95856 29.66336,24.49616 30.1208,21.64336 C29.7688,21.5312 26.94656,20.6896 23.73568,21.20496 L23.73568,21.20496 Z" id="Shape"></path>
                            <path d="M22.21104,17.57616 C22.44944,18.06416 22.67824,18.56016 22.89104,19.06096 C22.96608,19.23856 23.03984,19.41456 23.11184,19.59056 C26.52288,19.16176 29.91136,19.84976 30.24896,19.92016 C30.22656,17.50096 29.36256,15.28016 27.93392,13.53456 C27.71776,13.82576 25.99952,16.0288 22.21104,17.57616 L22.21104,17.57616 Z" id="Shape"></path>
                        </g>
                    </g>
                </g>
            </g>
        </g>
    </g>
</svg>