<?xml version="1.0" encoding="UTF-8" standalone="no"?>
<svg width="144px" height="294px" viewBox="0 0 144 294" version="1.1" xmlns="http://www.w3.org/2000/svg" xmlns:xlink="http://www.w3.org/1999/xlink" xmlns:sketch="http://www.bohemiancoding.com/sketch/ns">
    <defs></defs>
    <g id="Logo" stroke="none" stroke-width="1" fill="none" fill-rule="evenodd" sketch:type="MSPage">
        <g id="Artboard-2" sketch:type="MSArtboardGroup" transform="translate(-1332.000000, -202.000000)" fill="#222222">
            <g id="jt-logo" sketch:type="MSLayerGroup" transform="translate(1332.000000, 202.000000)">
                <path d="M72,246 L72,258 C72,277.882251 55.882251,294 36,294 C16.117749,294 0,277.882251 0,258 C0,238.117749 16.117749,222 36,222 C36.334418,222 36.667771,222.00456 37.0000002,222.013621 L37,222 L48,222 L48,36 L72,36 L72,222 L144,222 L144,246 L72,246 Z M96,12 L120,12 L120,222 L96,222 L96,12 Z M60,24 C66.627417,24 72,18.627417 72,12 C72,5.372583 66.627417,0 60,0 C53.372583,0 48,5.372583 48,12 C48,18.627417 53.372583,24 60,24 Z M120,36 L144,36 L144,60 L120,60 L120,36 Z M36,270 C29.372583,270 24,264.627417 24,258 C24,251.372583 29.372583,246 36,246 C42.627417,246 48,251.372583 48,258 C48,264.627417 42.627417,270 36,270 Z" id="Rectangle-92-Copy-2" sketch:type="MSShapeGroup"></path>
            </g>
        </g>
    </g>
</svg>