<svg xmlns="http://www.w3.org/2000/svg" width="2834.65" height="2834.649" viewBox="49.605 0 2834.65 2834.649"><circle cx="1466.93" cy="1417.324" r="1417.324" fill="#fff"/><path d="M1892.128 726.38h-850.395c-147.64 0-265.75 118.11-265.75 265.748v850.395c0 147.638 118.11 265.747 265.75 265.747h850.395c147.638 0 265.75-118.11 265.75-265.748V992.127c0-147.638-118.113-265.748-265.75-265.748zm76.772 159.448h29.527v236.22h-236.22v-236.22H1968.9zm-696.85 389.765c41.337-59.056 118.11-100.395 194.88-100.395s153.545 41.34 194.883 100.395c29.527 41.338 47.244 88.582 47.244 141.732 0 135.826-112.205 242.126-242.126 242.126-129.92 0-242.122-106.295-242.122-242.122 0-53.15 17.716-100.394 47.244-141.732zm750 566.93c0 70.866-59.056 129.92-129.922 129.92h-850.395c-70.866 0-129.922-59.054-129.922-129.92v-566.93h206.697c-17.717 41.338-29.527 94.488-29.527 141.732 0 206.693 171.26 377.953 377.952 377.953s377.954-171.26 377.954-377.953c0-47.244-11.812-100.395-29.527-141.732h206.69v566.93z" fill="#788492"/></svg>