<svg width="41" height="40" viewBox="0 0 41 40" xmlns="http://www.w3.org/2000/svg"><g fill="#788492" fill-rule="evenodd"><path d="M20.86 20.106c.132-.043.268-.083.403-.122-.258-.582-.538-1.165-.83-1.74-5.118 1.532-10.086 1.468-10.534 1.46-.005.104-.007.208-.007.314 0 2.632.998 5.036 2.635 6.852.23-.398 3.044-5.055 8.33-6.764zm-1.274-3.44c-1.698-3.02-3.53-5.556-3.8-5.927-2.867 1.35-5.01 3.995-5.675 7.174.46.007 4.68.026 9.477-1.248zm7.35-4.316c-1.81-1.607-4.19-2.583-6.793-2.583-.827 0-1.63.1-2.402.284.285.38 2.148 2.918 3.826 6 3.645-1.364 5.187-3.44 5.372-3.7zM21.89 21.7c-5.78 2.015-7.854 6.025-8.04 6.403 1.738 1.355 3.922 2.163 6.29 2.163 1.42 0 2.774-.29 4.004-.815-.152-.897-.747-4.03-2.187-7.77l-.066.02z"/><path d="M20.144 0c-11.047 0-20 8.955-20 19.998C.144 31.043 9.096 40 20.144 40c11.047 0 20-8.955 20-20.002C40.143 8.955 31.19 0 20.143 0zm0 32c-6.617 0-12-5.384-12-12s5.383-12 12-12c6.614 0 11.998 5.384 11.998 12s-5.384 12-12 12z"/><path d="M23.88 21.205c1.34 3.683 1.885 6.685 1.99 7.31 2.3-1.556 3.936-4.02 4.394-6.872-.352-.112-3.175-.953-6.385-.438zm-1.526-3.63c.238.49.467.985.68 1.486.075.18.15.356.22.53 3.412-.427 6.8.26 7.138.33-.023-2.42-.887-4.64-2.315-6.384-.216.29-1.935 2.494-5.723 4.04z"/></g></svg>