<svg width="41" height="40" viewBox="0 0 41 40" xmlns="http://www.w3.org/2000/svg"><path d="M20.002 0C8.955 0 0 8.954 0 20c0 11.043 8.955 20 20.002 20 10.072 0 18.4-7.446 19.792-17.13.132-.66.195-1.342.184-2.043.012-.273.022-.55.022-.825C40 8.954 31.048 0 20.002 0zm9.206 16.37c.008.19.01.373.01.56 0 5.71-4.344 12.293-12.292 12.293-2.443 0-4.71-.71-6.624-1.94.338.037.682.058 1.03.058 2.023 0 3.886-.684 5.367-1.844-1.893-.036-3.49-1.287-4.043-3 .265.05.537.078.817.078.39 0 .773-.054 1.135-.152-1.977-.396-3.47-2.14-3.47-4.234v-.055c.587.323 1.253.52 1.96.542-1.163-.777-1.923-2.1-1.923-3.598 0-.794.214-1.53.585-2.175 2.133 2.617 5.315 4.334 8.91 4.515-.076-.315-.115-.65-.115-.988 0-2.388 1.94-4.32 4.323-4.32 1.243 0 2.365.524 3.153 1.364.99-.195 1.91-.552 2.748-1.05-.32 1.01-1.005 1.855-1.9 2.39.88-.1 1.71-.335 2.48-.68-.577.87-1.31 1.628-2.15 2.238z" fill="#788492" fill-rule="evenodd"/></svg>