<svg width="41" height="40" viewBox="0 0 41 40" xmlns="http://www.w3.org/2000/svg"><path d="M20.283 0C9.24 0 .286 9.18.286 20.507c0 9.06 5.73 16.746 13.677 19.458 1 .19 1.365-.445 1.365-.99 0-.485-.017-1.775-.027-3.487-5.56 1.24-6.735-2.748-6.735-2.748-.91-2.37-2.22-3-2.22-3-1.817-1.272.137-1.247.137-1.247 2.007.146 3.065 2.114 3.065 2.114 1.784 3.134 4.68 2.23 5.82 1.704.183-1.323.698-2.227 1.27-2.74-4.44-.516-9.11-2.276-9.11-10.133 0-2.24.78-4.07 2.06-5.503-.206-.518-.89-2.603.197-5.427 0 0 1.68-.552 5.498 2.102 1.595-.455 3.306-.683 5.007-.69 1.696.01 3.41.235 5.005.69 3.817-2.654 5.494-2.103 5.494-2.103 1.09 2.824.404 4.91.197 5.427 1.282 1.434 2.056 3.264 2.056 5.503 0 7.878-4.675 9.61-9.13 10.118.72.634 1.36 1.885 1.36 3.797 0 2.742-.025 4.955-.025 5.627 0 .55.36 1.185 1.376.984 7.94-2.716 13.666-10.398 13.666-19.454C40.284 9.18 31.33 0 20.283 0z" fill="#788492" fill-rule="evenodd"/></svg>