<?xml version="1.0" encoding="UTF-8" standalone="no"?>
<!DOCTYPE svg PUBLIC "-//W3C//DTD SVG 1.1//EN" "http://www.w3.org/Graphics/SVG/1.1/DTD/svg11.dtd">
<svg width="100%" height="100%" viewBox="0 0 46 51" version="1.1" xmlns="http://www.w3.org/2000/svg" xmlns:xlink="http://www.w3.org/1999/xlink" xml:space="preserve" xmlns:serif="http://www.serif.com/" style="fill-rule:evenodd;clip-rule:evenodd;stroke-linejoin:round;stroke-miterlimit:1.5;">
    <g transform="matrix(1,0,0,1,-675.721,-390.07)">
        <g transform="matrix(0.212504,0,0,0.212504,595.732,345.397)">
            <path d="M435.527,224.665L469.265,224.665L469.265,318.722L384.409,318.722L384.409,292.141" style="fill:none;stroke:black;stroke-width:16px;"/>
            <g transform="matrix(2.11175,0,0,1.08596,-558.705,-19.3113)">
                <path d="M527.699,232.042L504.752,232.042L504.752,318.722L497.165,318.722L497.165,227.462L497.17,227.034L497.19,226.52L497.224,226.003L497.271,225.491L497.33,224.999L497.401,224.507L497.485,224.025L497.58,223.557L497.686,223.102L497.803,222.658L497.931,222.224L498.069,221.805L498.215,221.406L498.37,221.023L498.537,220.648L498.712,220.292L498.894,219.954L499.084,219.634L499.282,219.331L499.489,219.044L499.703,218.777L499.926,218.528L500.153,218.302L500.388,218.095L500.632,217.908L500.876,217.748L501.127,217.609L501.387,217.493L501.645,217.403L501.909,217.337L502.179,217.298L502.399,217.287L527.699,217.287L527.699,232.042Z"/>
            </g>
            <g transform="matrix(1,0,0,0.98955,0,-0.869001)">
                <path d="M384.409,349.599C384.409,349.599 428.677,349.599 453.265,349.599C462.102,349.599 469.265,356.838 469.265,365.768C469.265,383.409 469.265,411.482 469.265,429.123C469.265,438.053 462.102,445.292 453.265,445.292C428.677,445.292 384.409,445.292 384.409,445.292L384.409,349.599Z" style="fill:none;stroke:black;stroke-width:16.08px;"/>
            </g>
            <g transform="matrix(1,0,0,0.98955,114.787,-0.869001)">
                <path d="M384.409,349.599C384.409,349.599 428.677,349.599 453.265,349.599C462.102,349.599 469.265,356.838 469.265,365.768C469.265,383.409 469.265,411.482 469.265,429.123C469.265,438.053 462.102,445.292 453.265,445.292C428.677,445.292 384.409,445.292 384.409,445.292L384.409,349.599Z" style="fill:none;stroke:black;stroke-width:16.08px;"/>
            </g>
        </g>
    </g>
</svg>
