<?xml version="1.0" encoding="UTF-8" standalone="no"?>
<!DOCTYPE svg PUBLIC "-//W3C//DTD SVG 1.1//EN" "http://www.w3.org/Graphics/SVG/1.1/DTD/svg11.dtd">
<svg width="100%" height="100%" viewBox="0 0 80 80" version="1.1" xmlns="http://www.w3.org/2000/svg" xmlns:xlink="http://www.w3.org/1999/xlink" xml:space="preserve" xmlns:serif="http://www.serif.com/" style="fill-rule:evenodd;clip-rule:evenodd;stroke-linejoin:round;stroke-miterlimit:1.41421;">
    <g transform="matrix(1,0,0,1,-13.6741,-13.6741)">
        <g transform="matrix(1,0,0,1,-178.914,-108.115)">
            <g transform="matrix(0.779083,0,0,0.779083,198.752,118.156)">
                <path d="M43.431,4.663C71.767,4.663 94.773,27.669 94.773,56.006C94.773,84.342 71.767,107.348 43.431,107.348C15.094,107.348 -7.912,84.342 -7.912,56.006C-7.912,27.669 15.094,4.663 43.431,4.663ZM43.431,35.469C54.765,35.469 63.967,44.671 63.967,56.006C63.967,67.341 54.765,76.543 43.431,76.543C32.096,76.543 22.894,67.341 22.894,56.006C22.894,44.671 32.096,35.469 43.431,35.469Z" style="fill:rgb(255,0,125);"/>
            </g>
        </g>
        <g transform="matrix(1,0,0,1,-178.914,-108.115)">
            <g transform="matrix(-0.522574,0.522574,-0.6379,-0.6379,254.992,122.435)">
                <path d="M68.644,25.127C68.727,25.458 68.647,25.802 68.422,26.085C67.56,26.429 65.291,27.028 59.09,27.028C52.888,27.028 50.62,26.429 49.809,26.058C49.592,25.786 49.515,25.455 49.595,25.137C50.164,22.61 52.483,13.334 53.61,8.828C53.903,7.658 55.275,6.888 56.713,7.088C57.341,7.169 58.122,7.225 59.09,7.238C60.072,7.251 60.861,7.207 61.494,7.133C62.924,6.942 64.284,7.709 64.575,8.872C65.711,13.393 68.017,22.618 68.644,25.127Z" style="fill:white;"/>
            </g>
        </g>
        <g transform="matrix(1,0,0,1,-178.914,-108.115)">
            <g transform="matrix(0.522574,-0.522574,0.6379,0.6379,210.184,201.143)">
                <path d="M68.644,25.127C68.727,25.458 68.647,25.802 68.422,26.085C67.56,26.429 65.291,27.028 59.09,27.028C52.888,27.028 50.62,26.429 49.809,26.058C49.592,25.786 49.515,25.455 49.595,25.137C50.164,22.61 52.483,13.334 53.61,8.828C53.903,7.658 55.275,6.888 56.713,7.088C57.341,7.169 58.122,7.225 59.09,7.238C60.072,7.251 60.861,7.207 61.494,7.133C62.924,6.942 64.284,7.709 64.575,8.872C65.711,13.393 68.017,22.618 68.644,25.127Z" style="fill:white;"/>
            </g>
        </g>
        <g transform="matrix(1,0,0,1,-178.914,-108.115)">
            <g transform="matrix(1.06607,0,0,1.06607,176.232,104.362)">
                <circle cx="52.863" cy="53.868" r="3.752" style="fill:rgb(255,0,125);"/>
            </g>
        </g>
    </g>
</svg>
